<?xml version="1.0" standalone="no"?>
<!DOCTYPE svg PUBLIC "-//W3C//DTD SVG 20010904//EN"
 "http://www.w3.org/TR/2001/REC-SVG-20010904/DTD/svg10.dtd">
<svg version="1.0" xmlns="http://www.w3.org/2000/svg"
 width="4267.000000pt" height="4267.000000pt" viewBox="0 0 4267.000000 4267.000000"
 preserveAspectRatio="xMidYMid meet">
<metadata>
Created by potrace 1.11, written by Peter Selinger 2001-2013
</metadata>
<g transform="translate(0.000000,4267.000000) scale(0.100000,-0.100000)"
fill="#000000" stroke="none">
<path d="M0 21335 l0 -21335 21335 0 21335 0 0 21335 0 21335 -21335 0 -21335
0 0 -21335z m26368 12379 c12 -14 22 -36 22 -49 0 -23 -37 -133 -60 -180 -17
-34 -4300 -11418 -4298 -11421 2 -1 815 6 1808 16 993 11 1896 20 2006 20
l201 0 27 -27 c21 -21 27 -35 24 -58 -2 -22 -1346 -1831 -4887 -6580 -2686
-3603 -4895 -6562 -4909 -6577 -49 -53 -142 -21 -142 48 0 22 104 316 207 584
32 84 50 132 117 317 31 83 60 162 65 175 13 31 81 213 98 263 7 22 18 49 22
60 5 11 14 34 20 50 5 17 21 59 34 95 14 36 43 117 66 180 23 63 44 122 48
130 8 19 32 83 67 180 16 41 44 118 63 170 20 52 46 122 58 155 12 33 41 112
65 175 24 63 51 138 61 165 10 28 27 75 39 105 12 30 27 73 35 95 7 22 30 83
50 135 20 52 42 113 49 135 7 22 43 119 79 215 36 96 630 1701 1320 3565 691
1865 1281 3455 1311 3535 31 79 56 148 56 153 0 4 -873 7 -1941 6 l-1941 -1
-25 23 c-19 19 -24 32 -21 59 3 32 2500 3522 8643 12080 385 537 507 707 842
1175 517 722 606 843 626 853 31 15 68 6 95 -24z"/>
</g>
</svg>
